<?xml version="1.0" encoding="UTF-8"?>
<svg id="Layer_2" data-name="Layer 2" xmlns="http://www.w3.org/2000/svg" viewBox="0 0 144.21 144.21">
  <defs>
    <style>
      .cls-1 {
        fill: #ee2924;
      }

      .cls-2 {
        fill: #fcee2e;
      }

      .cls-3 {
        fill: #fbee2d;
      }

      .cls-4 {
        fill: #fff;
      }

      .cls-5 {
        fill: #21438e;
      }
    </style>
  </defs>
  <g id="Layer_1-2" data-name="Layer 1">
    <g>
      <path class="cls-4" d="M72.11,140.61c37.78,0,68.5-30.72,68.5-68.5S109.86,3.58,72.11,3.58,3.61,34.29,3.61,72.08s30.72,68.53,68.5,68.53M144.21,72.11c0,39.83-32.27,72.11-72.11,72.11S0,111.94,0,72.11,32.27,0,72.11,0c39.83-.03,72.11,32.27,72.11,72.11"/>
      <path class="cls-1" d="M72.11,137.35c-36,0-65.27-29.28-65.27-65.24S36.11,6.84,72.11,6.84s65.27,29.28,65.27,65.24-29.3,65.27-65.27,65.27"/>
      <path class="cls-5" d="M40.15,117.07c2.11,0,2.83-1.21,2.71-4.01-.63.4-1.79.46-2.77.75-.98.23-1.82.66-1.82,1.73.03,1.07.89,1.53,1.87,1.53M34.41,110.01c.09-1.79.92-2.94,2.13-3.63,1.21-.66,2.77-.92,4.33-.92,3.23,0,6.35.69,6.35,4.56v5.94c0,1.15,0,2.39.52,3.49h-4.47c-.17-.4-.2-.84-.26-1.3-1.15,1.21-2.86,1.67-4.47,1.67-2.6,0-4.64-1.3-4.64-4.12,0-4.44,4.82-4.1,7.9-4.73.75-.14,1.18-.4,1.18-1.24,0-1.04-1.24-1.41-2.13-1.41-1.24,0-2.02.55-2.22,1.7h-4.21Z"/>
      <path class="cls-5" d="M53.59,114.94c0,.69.29,1.18.75,1.5.4.32,1.01.46,1.64.46.87,0,2.11-.37,2.11-1.44s-1.38-1.27-2.16-1.44c-2.8-.69-6.32-.78-6.32-4.44,0-3.29,3.55-4.15,6.2-4.15,2.97,0,6.09.87,6.26,4.38h-4.12c0-.58-.2-.92-.58-1.18-.37-.23-.87-.35-1.41-.35-.75,0-1.9.09-1.9,1.01,0,1.27,3,1.53,5.02,1.96,2.74.55,3.46,2.54,3.46,3.66,0,3.63-3.46,4.85-6.52,4.85-3.23,0-6.52-1.07-6.66-4.87h4.24v.06Z"/>
      <path class="cls-5" d="M74.01,111.22c-.09-1.53-1.15-2.77-2.65-2.77s-2.62,1.12-2.88,2.77h5.54ZM68.5,113.7c.09,1.87,1.15,3.09,3.03,3.09,1.07,0,2.13-.49,2.54-1.5h4.18c-.81,3.14-3.72,4.5-6.75,4.5-4.41,0-7.44-2.68-7.44-7.24,0-4.15,3.32-7.15,7.33-7.15,4.87,0,7.3,3.66,7.1,8.28h-9.98v.03Z"/>
      <path class="cls-5" d="M86.3,117.07c2.11,0,2.83-1.21,2.71-4.01-.63.4-1.79.46-2.74.75-1.01.23-1.82.66-1.82,1.73-.03,1.07.84,1.53,1.85,1.53M80.53,110.01c.06-1.79.92-2.94,2.13-3.63,1.21-.66,2.77-.92,4.33-.92,3.23,0,6.35.69,6.35,4.56v5.94c0,1.15,0,2.39.52,3.49h-4.5c-.14-.4-.2-.84-.26-1.3-1.15,1.21-2.86,1.67-4.47,1.67-2.6,0-4.64-1.3-4.64-4.12,0-4.44,4.82-4.1,7.9-4.73.75-.14,1.18-.4,1.18-1.24,0-1.04-1.24-1.41-2.13-1.41-1.24,0-2.02.55-2.22,1.7h-4.18Z"/>
      <path class="cls-5" d="M96.25,105.82h4.33v1.85h.06c.81-1.38,2.65-2.25,4.27-2.25,4.53,0,4.9,3.29,4.9,5.25v8.71h-4.44v-6.58c0-1.87.2-3.75-2.22-3.75-1.67,0-2.39,1.41-2.39,2.91v7.41h-4.44v-13.56h-.06Z"/>
      <path class="cls-5" d="M40.15,117.07c2.11,0,2.83-1.21,2.71-4.01-.63.4-1.79.46-2.77.75-.98.23-1.82.66-1.82,1.73.03,1.07.89,1.53,1.87,1.53M34.41,110.01c.09-1.79.92-2.94,2.13-3.63,1.21-.66,2.77-.92,4.33-.92,3.23,0,6.35.69,6.35,4.56v5.94c0,1.15,0,2.39.52,3.49h-4.47c-.17-.4-.2-.84-.26-1.3-1.15,1.21-2.86,1.67-4.47,1.67-2.6,0-4.64-1.3-4.64-4.12,0-4.44,4.82-4.1,7.9-4.73.75-.14,1.18-.4,1.18-1.24,0-1.04-1.24-1.41-2.13-1.41-1.24,0-2.02.55-2.22,1.7h-4.21Z"/>
      <path class="cls-5" d="M53.59,114.94c0,.69.29,1.18.75,1.5.4.32,1.01.46,1.64.46.87,0,2.11-.37,2.11-1.44s-1.38-1.27-2.16-1.44c-2.8-.69-6.32-.78-6.32-4.44,0-3.29,3.55-4.15,6.2-4.15,2.97,0,6.09.87,6.26,4.38h-4.12c0-.58-.2-.92-.58-1.18-.37-.23-.87-.35-1.41-.35-.75,0-1.9.09-1.9,1.01,0,1.27,3,1.53,5.02,1.96,2.74.55,3.46,2.54,3.46,3.66,0,3.63-3.46,4.85-6.52,4.85-3.23,0-6.52-1.07-6.66-4.87h4.24v.06Z"/>
      <path class="cls-5" d="M74.01,111.22c-.09-1.53-1.15-2.77-2.65-2.77s-2.62,1.12-2.88,2.77h5.54ZM68.5,113.7c.09,1.87,1.15,3.09,3.03,3.09,1.07,0,2.13-.49,2.54-1.5h4.18c-.81,3.14-3.72,4.5-6.75,4.5-4.41,0-7.44-2.68-7.44-7.24,0-4.15,3.32-7.15,7.33-7.15,4.87,0,7.3,3.66,7.1,8.28h-9.98v.03Z"/>
      <path class="cls-5" d="M86.3,117.07c2.11,0,2.83-1.21,2.71-4.01-.63.4-1.79.46-2.74.75-1.01.23-1.82.66-1.82,1.73-.03,1.07.84,1.53,1.85,1.53M80.53,110.01c.06-1.79.92-2.94,2.13-3.63,1.21-.66,2.77-.92,4.33-.92,3.23,0,6.35.69,6.35,4.56v5.94c0,1.15,0,2.39.52,3.49h-4.5c-.14-.4-.2-.84-.26-1.3-1.15,1.21-2.86,1.67-4.47,1.67-2.6,0-4.64-1.3-4.64-4.12,0-4.44,4.82-4.1,7.9-4.73.75-.14,1.18-.4,1.18-1.24,0-1.04-1.24-1.41-2.13-1.41-1.24,0-2.02.55-2.22,1.7h-4.18Z"/>
      <path class="cls-5" d="M96.25,105.82h4.33v1.85h.06c.81-1.38,2.65-2.25,4.27-2.25,4.53,0,4.9,3.29,4.9,5.25v8.71h-4.44v-6.58c0-1.87.2-3.75-2.22-3.75-1.67,0-2.39,1.41-2.39,2.91v7.41h-4.44v-13.56h-.06Z"/>
      <path class="cls-2" d="M54.8,62.07c-13.76-13.76-14.71-31.96-14.71-37.15v-.52h-5.68c0,15.32,5.97,30.31,18.34,37.7-12.37,7.38-18.34,22.38-18.34,37.7h5.68v-.52c0-5.25.98-23.45,14.71-37.21"/>
      <path class="cls-2" d="M58.9,62.07c-10.04-14.28-11.02-31.81-11.02-37.06v-.63h-5.74v.52c0,5.05,1.27,23.22,14.71,37.15-13.44,13.93-14.74,32.1-14.71,37.15v.52h5.74v-.63c0-5.22.98-22.73,11.02-37"/>
      <path class="cls-2" d="M62.85,62.07c-6.66-14.57-7.21-31.32-7.21-36.77v-.89h-5.74v.63c0,5.13.52,21,10.67,36.57l.35.49-.35.49c-10.15,15.57-10.7,31.41-10.67,36.57v.63h5.74v-.89c0-5.54.58-22.27,7.21-36.83"/>
      <path class="cls-2" d="M67,62.07c-3.26-14.28-3.61-29.77-3.61-35.91v-1.82h-5.74v.89c0,5.36.63,22.5,7.24,36.66l.06.14-.06.14c-6.63,14.13-7.27,31.27-7.24,36.66v.89h5.74v-1.82c0-6.09.35-21.57,3.61-35.85"/>
      <path class="cls-2" d="M65.47,24.37v1.82c0,6.06.37,21.6,3.58,35.65l.06.23-.06.23c-3.23,14.08-3.58,29.59-3.58,35.65v1.82h5.65V24.37h-5.65Z"/>
      <path class="cls-3" d="M91.43,62.07c12.4-7.38,18.34-22.38,18.34-37.7h-5.68v.52c0,5.19-.98,23.39-14.74,37.15,13.76,13.76,14.71,31.96,14.74,37.15v.52h5.68c.03-15.26-5.94-30.26-18.34-37.64"/>
      <path class="cls-2" d="M102.07,24.89v-.52h-5.74v.63c0,5.25-1.01,22.79-11.05,37.06,10.04,14.28,11.02,31.78,11.05,37.06v.63h5.74v-.52c0-5.05-1.27-23.22-14.74-37.18,13.47-13.93,14.77-32.13,14.74-37.18"/>
      <path class="cls-2" d="M83.27,62.07l.35-.49c10.15-15.57,10.7-31.44,10.67-36.57v-.63h-5.74v.89c0,5.48-.58,22.24-7.24,36.77,6.69,14.59,7.24,31.32,7.27,36.8v.89h5.74v-.63c.03-5.13-.52-21-10.67-36.57l-.37-.46Z"/>
      <path class="cls-2" d="M79.2,62.07l.06-.14c6.63-14.13,7.27-31.27,7.24-36.66v-.89h-5.71v1.82c0,6.11-.35,21.6-3.58,35.88,3.23,14.28,3.58,29.77,3.58,35.88v1.82h5.74v-.89c0-5.36-.63-22.5-7.24-36.66l-.09-.14Z"/>
      <path class="cls-2" d="M75.11,62.07l.06-.23c3.23-14.08,3.58-29.59,3.58-35.65v-1.82h-5.65v75.39h5.65v-1.82c0-6.06-.35-21.57-3.58-35.65l-.06-.23Z"/>
    </g>
  </g>
</svg>