<?xml version="1.0" encoding="UTF-8"?>
<svg id="Layer_2" data-name="Layer 2" xmlns="http://www.w3.org/2000/svg" xmlns:xlink="http://www.w3.org/1999/xlink" viewBox="0 0 1704.18 302.73">
  <defs>
    <style>
      .cls-1 {
        fill: none;
      }

      .cls-2 {
        fill: #fec23a;
      }

      .cls-3 {
        fill: url(#linear-gradient-8);
      }

      .cls-4 {
        fill: url(#linear-gradient-7);
      }

      .cls-5 {
        fill: url(#linear-gradient-5);
      }

      .cls-6 {
        fill: url(#linear-gradient-6);
      }

      .cls-7 {
        fill: url(#linear-gradient-4);
      }

      .cls-8 {
        fill: url(#linear-gradient-3);
      }

      .cls-9 {
        fill: url(#linear-gradient-2);
      }

      .cls-10 {
        fill: #fff;
        font-family: Gotham-Black, 'Gotham Black';
        font-size: 64px;
        font-weight: 800;
      }

      .cls-11 {
        fill: url(#linear-gradient);
      }

      .cls-12 {
        fill: #fae7d8;
      }
    </style>
    <linearGradient id="linear-gradient" x1="1.2" y1="135.26" x2="117.38" y2="135.26" gradientUnits="userSpaceOnUse">
      <stop offset="0" stop-color="#fec23a"/>
      <stop offset="1" stop-color="#fff071"/>
    </linearGradient>
    <linearGradient id="linear-gradient-2" x1="372.59" y1="87.13" x2="372.74" y2="87.13" gradientUnits="userSpaceOnUse">
      <stop offset="0" stop-color="#ed1e24"/>
      <stop offset=".49" stop-color="#f47a5c"/>
      <stop offset="1" stop-color="#ed1e24"/>
    </linearGradient>
    <linearGradient id="linear-gradient-3" x1="260.78" y1="229.09" x2="357.77" y2="229.09" gradientUnits="userSpaceOnUse">
      <stop offset="0" stop-color="#33c6f4"/>
      <stop offset=".51" stop-color="#9adbf9"/>
      <stop offset="1" stop-color="#33c6f4"/>
    </linearGradient>
    <linearGradient id="linear-gradient-4" x1="6.17" y1="248.95" x2="211.21" y2="248.95" xlink:href="#linear-gradient-3"/>
    <linearGradient id="linear-gradient-5" x1="0" y1="233.26" x2="212.35" y2="233.26" gradientUnits="userSpaceOnUse">
      <stop offset="0" stop-color="#d8ac82"/>
      <stop offset=".51" stop-color="#fff"/>
      <stop offset="1" stop-color="#d8ac82"/>
    </linearGradient>
    <linearGradient id="linear-gradient-6" x1="0" y1="214.05" x2="212.64" y2="214.05" xlink:href="#linear-gradient-2"/>
    <linearGradient id="linear-gradient-7" x1="218.43" y1="90.94" x2="354" y2="90.94" xlink:href="#linear-gradient"/>
    <linearGradient id="linear-gradient-8" x1="280.19" y1="137.41" x2="382.06" y2="137.41" xlink:href="#linear-gradient-2"/>
  </defs>
  <g id="Layer_1-2" data-name="Layer 1">
    <g>
      <g>
        <g>
          <g>
            <path class="cls-12" d="M409.8,85.41c-1.33-.97-2.35-2.22-3.2-3.62-.85-1.39-1.77-2.73-2.92-3.89-.14-.14-.17-.23.01-.35,1.64-1.12,2.92-2.63,4.3-4.04,1.45-1.48,3.15-2.57,5.23-2.92,2.2-.36,4.05.3,5.5,2.05.26.31.29.49-.04.79-2.63,2.44-3.43,6.08-2.07,9.39.29.71.67,1.37,1.16,1.97.15.18.15.29-.04.47-1.71,1.62-4.18,2.02-6.4,1-.53-.24-1.06-.48-1.52-.86Z"/>
            <path class="cls-12" d="M422.65,70.55c-.08-.9-.08-1.8.24-2.66.57-1.49,1.57-2.61,2.96-3.4.57-.32,1.19-.52,1.77-.81,1.79-.54,3.64-.51,5.48-.63.97-.06,1.94-.18,2.88-.46.3-.09.48-.1.51.31.13,1.79.7,3.48,1.22,5.18.6,1.95.78,3.94.17,5.92-.74,2.4-2.34,3.84-4.86,4.22-.28.04-.38-.01-.44-.3-.49-2.37-1.76-4.23-3.82-5.48-1.7-1.04-3.56-1.52-5.57-1.15-.29.05-.41-.05-.47-.29-.03-.15-.04-.3-.06-.45Z"/>
            <path class="cls-12" d="M436.55,89.98c-.22.87-.43,1.74-.8,2.57-.51,1.15-1.2,2.21-1.68,3.38-.28.68-.56,1.36-.76,2.06-.18.63-.23.64-.82.37-1.64-.72-3.37-1.16-5.13-1.48-1.42-.43-2.78-.97-3.96-1.89-1.06-.82-1.92-1.81-2.38-3.09-.49-1.39-.36-2.78.19-4.13.12-.29.29-.25.53-.18,2.4.74,4.7.5,6.88-.76,1.61-.94,2.78-2.28,3.48-4.02.11-.28.22-.37.54-.27,2.24.7,3.81,2.71,3.99,5.1.06.78.01,1.56-.08,2.33Z"/>
            <path class="cls-12" d="M428.62,79.99c.06-.99-.16-2-.65-2.87-.07-.13-.26-.56-.43-.54-.02,0-.04.02-.05.04-.55.77-1.06,1.57-1.56,2.36-.16.25-.32.52-.34.82-.02.32.13.62.27.91.45.9.89,1.81,1.31,2.72.83-.93,1.36-2.13,1.45-3.38,0-.02,0-.04,0-.06Z"/>
            <path class="cls-12" d="M422.41,75.79c-.91.4-1.71,1.06-2.26,1.88-.08.12-.38.49-.29.63.01.02.04.03.06.03.93.14,1.87.23,2.81.31.3.03.61.05.89-.07.29-.13.49-.4.68-.65.6-.81,1.2-1.61,1.83-2.4-1.21-.32-2.52-.24-3.67.25-.02,0-.04.02-.05.02Z"/>
            <path class="cls-12" d="M421.95,83.12c.81.58,1.78.92,2.78.98.15,0,.61.08.69-.08,0-.02,0-.05,0-.07-.35-.88-.77-1.73-1.18-2.58-.13-.27-.27-.55-.51-.73-.26-.19-.59-.22-.91-.25-1-.1-2-.21-3-.33.35,1.2,1.09,2.29,2.09,3.02.02.01.03.02.05.04Z"/>
          </g>
          <g>
            <path class="cls-12" d="M403.46,115.07c-1.01.37-2.06.47-3.12.43-1.06-.04-2.12-.03-3.16.18-.13.02-.18,0-.19-.13-.01-1.3-.37-2.54-.63-3.79-.28-1.32-.26-2.64.31-3.89.6-1.33,1.63-2.09,3.1-2.24.26-.03.37.02.42.31.37,2.31,2.06,4.06,4.34,4.52.49.1.99.13,1.49.09.15-.01.21.02.24.19.26,1.51-.42,3-1.77,3.83-.32.2-.64.4-1.02.51Z"/>
            <path class="cls-12" d="M400.06,102.73c-.52-.28-1.01-.61-1.35-1.09-.6-.85-.85-1.8-.77-2.83.03-.43.15-.83.2-1.25.35-1.17,1.04-2.16,1.64-3.2.32-.55.6-1.12.79-1.72.06-.19.12-.29.35-.16,1.02.58,2.14.88,3.25,1.22,1.27.38,2.42,1,3.27,2.05,1.03,1.27,1.24,2.66.53,4.16-.08.17-.15.2-.32.13-1.46-.6-2.93-.57-4.36.09-1.18.55-2.11,1.38-2.64,2.6-.08.18-.17.2-.33.15-.09-.03-.18-.08-.27-.13Z"/>
            <path class="cls-12" d="M415.63,102.22c.39.44.79.87,1.1,1.36.44.69.77,1.45,1.23,2.13.27.4.53.79.84,1.16.27.33.26.35-.09.58-.99.63-1.85,1.41-2.66,2.25-.75.61-1.53,1.16-2.46,1.47-.83.27-1.68.39-2.54.17-.93-.24-1.64-.81-2.17-1.6-.11-.17-.03-.25.09-.35,1.27-1.03,1.98-2.37,2.08-4,.08-1.21-.23-2.33-.92-3.34-.11-.16-.12-.25.05-.39,1.19-.96,2.85-1.09,4.21-.32.45.25.85.56,1.23.89Z"/>
            <path class="cls-12" d="M407.34,102.91c-.52-.39-1.14-.64-1.79-.69-.1,0-.4-.06-.45.04,0,.01,0,.03,0,.04.21.58.47,1.14.72,1.7.08.18.17.37.32.48.17.13.38.16.59.18.65.08,1.3.17,1.95.27-.2-.79-.66-1.51-1.31-2.01-.01,0-.02-.02-.03-.02Z"/>
            <path class="cls-12" d="M402.81,104.75c-.11.64-.05,1.31.2,1.91.04.09.12.38.24.38.02,0,.03-.01.04-.02.42-.45.8-.93,1.19-1.41.12-.15.25-.31.28-.51.04-.2-.04-.41-.11-.61-.22-.62-.44-1.24-.64-1.86-.61.54-1.04,1.28-1.19,2.08,0,.01,0,.03,0,.04Z"/>
            <path class="cls-12" d="M406.62,107.65c.61-.23,1.15-.63,1.53-1.15.06-.08.27-.3.21-.4,0-.01-.02-.02-.04-.02-.6-.12-1.21-.21-1.82-.3-.19-.03-.4-.05-.58.02-.19.07-.33.24-.47.4-.41.51-.84,1.01-1.27,1.5.78.25,1.63.24,2.4-.04.01,0,.02,0,.04-.01Z"/>
          </g>
          <g>
            <path class="cls-12" d="M392.73,130.8c-.54-.69-.88-1.48-1.11-2.33-.23-.84-.51-1.66-.93-2.42-.05-.09-.05-.14.06-.18,1.01-.34,1.88-.92,2.8-1.44.96-.55,1.99-.86,3.11-.73,1.18.14,2.04.75,2.52,1.85.09.2.08.29-.14.4-1.71.86-2.65,2.62-2.44,4.52.05.41.14.8.31,1.18.05.12.04.17-.09.24-1.11.58-2.44.42-3.43-.42-.24-.2-.48-.4-.65-.66Z"/>
            <path class="cls-12" d="M401.5,125.06c.09-.47.22-.94.51-1.33.51-.68,1.19-1.11,2.01-1.31.34-.08.69-.1,1.03-.16,1-.02,1.94.27,2.9.48.51.11,1.02.19,1.54.19.17,0,.26.02.22.23-.19.94-.15,1.89-.13,2.84.02,1.09-.18,2.13-.78,3.06-.73,1.12-1.76,1.63-3.11,1.45-.15-.02-.19-.06-.18-.22.1-1.29-.29-2.43-1.16-3.37-.72-.78-1.61-1.3-2.69-1.41-.16-.02-.2-.08-.2-.22,0-.08.02-.16.03-.24Z"/>
            <path class="cls-12" d="M405.79,137.06c-.24.41-.48.83-.79,1.2-.43.52-.94.96-1.36,1.49-.24.31-.48.62-.69.95-.19.29-.21.29-.48.07-.74-.61-1.56-1.09-2.42-1.51-.66-.43-1.29-.9-1.76-1.55-.42-.58-.72-1.21-.77-1.93-.05-.79.22-1.48.7-2.09.1-.13.19-.09.3-.01,1.12.73,2.34.95,3.64.62.97-.25,1.76-.76,2.38-1.55.1-.13.17-.16.32-.06,1.05.69,1.56,1.95,1.3,3.2-.08.41-.22.8-.38,1.18Z"/>
            <path class="cls-12" d="M403.18,130.78c.18-.5.21-1.05.09-1.57-.02-.08-.05-.33-.14-.34-.01,0-.02,0-.03.01-.4.31-.77.65-1.15.98-.12.11-.24.22-.3.37-.06.16-.03.34,0,.5.1.53.19,1.06.27,1.59.56-.36,1.01-.9,1.24-1.52,0-.01,0-.02.01-.03Z"/>
            <path class="cls-12" d="M400.61,127.71c-.53.07-1.03.29-1.44.63-.06.05-.27.19-.24.28,0,.01.02.02.03.02.46.21.93.39,1.4.57.15.06.31.12.47.09.17-.02.31-.13.45-.24.42-.33.85-.65,1.29-.97-.57-.34-1.26-.49-1.92-.41-.01,0-.02,0-.03,0Z"/>
            <path class="cls-12" d="M399.3,131.41c.33.41.78.74,1.28.91.07.03.3.13.36.06,0,0,0-.02,0-.04-.05-.5-.14-1-.23-1.49-.03-.16-.06-.32-.16-.45-.11-.13-.27-.2-.43-.26-.5-.2-1-.4-1.49-.61,0,.67.22,1.33.63,1.86,0,0,.01.02.02.03Z"/>
          </g>
          <g>
            <path class="cls-12" d="M384.41,139.36c.42-.77,1.02-1.4,1.7-1.94.68-.54,1.32-1.12,1.86-1.81.06-.08.11-.1.19-.02.71.79,1.59,1.37,2.43,2,.88.66,1.58,1.49,1.9,2.57.34,1.14.11,2.17-.71,3.05-.15.16-.24.19-.42.03-1.47-1.23-3.45-1.4-5.11-.46-.36.2-.68.45-.96.75-.09.09-.14.1-.25,0-.97-.79-1.35-2.08-.96-3.32.09-.3.18-.6.35-.86Z"/>
            <path class="cls-12" d="M393.14,145.15c.47-.11.95-.17,1.42-.05.83.2,1.49.65,2,1.33.21.28.36.59.55.88.41.91.52,1.89.7,2.86.1.51.23,1.01.44,1.49.07.15.08.25-.13.29-.94.19-1.79.6-2.66,1-.99.45-2.03.68-3.12.49-1.32-.23-2.19-.98-2.56-2.28-.04-.14-.02-.2.13-.25,1.22-.42,2.12-1.22,2.64-2.39.43-.97.56-1.99.23-3.03-.05-.15,0-.22.12-.27.07-.03.15-.04.23-.06Z"/>
            <path class="cls-12" d="M383.81,153.83c-.48-.06-.95-.11-1.41-.25-.64-.19-1.25-.48-1.9-.66-.38-.1-.76-.2-1.14-.26-.34-.05-.35-.08-.25-.41.27-.92.38-1.86.43-2.82.13-.78.32-1.54.73-2.23.36-.62.83-1.14,1.47-1.47.7-.36,1.44-.38,2.2-.18.16.04.15.14.13.27-.23,1.32.05,2.52.87,3.59.61.79,1.4,1.32,2.36,1.57.16.04.21.09.18.27-.22,1.23-1.17,2.2-2.43,2.46-.41.08-.82.11-1.24.11Z"/>
            <path class="cls-12" d="M388.55,148.95c.53-.04,1.05-.22,1.48-.54.06-.05.28-.18.26-.26,0-.01-.01-.02-.02-.03-.44-.24-.9-.45-1.36-.66-.15-.07-.3-.14-.46-.13-.17.01-.32.11-.46.21-.45.3-.9.59-1.35.88.55.38,1.22.58,1.89.54.01,0,.02,0,.03,0Z"/>
            <path class="cls-12" d="M390.36,145.37c-.27-.45-.68-.83-1.15-1.07-.07-.04-.28-.17-.35-.11,0,0-.01.02-.01.03-.01.5,0,1.01.03,1.51,0,.16.01.33.1.47.09.15.24.23.39.32.47.26.93.53,1.4.8.09-.66-.04-1.35-.38-1.93,0,0-.01-.02-.02-.03Z"/>
            <path class="cls-12" d="M386.44,145.63c-.25.47-.37,1.01-.33,1.54,0,.08,0,.33.09.36.01,0,.02,0,.04,0,.44-.25.86-.52,1.28-.8.13-.09.27-.18.35-.32.08-.15.08-.33.07-.5-.02-.54-.03-1.07-.03-1.61-.61.27-1.14.73-1.46,1.31,0,0-.01.02-.02.03Z"/>
          </g>
          <g>
            <path class="cls-12" d="M382.45,158.39c.88,0,1.72.2,2.52.53.81.33,1.63.6,2.49.73.1.02.14.04.11.16-.35,1-.42,2.06-.56,3.1-.15,1.09-.53,2.1-1.31,2.91-.83.86-1.83,1.16-3.01.87-.21-.05-.28-.12-.24-.35.35-1.88-.47-3.7-2.1-4.68-.35-.21-.72-.38-1.12-.48-.12-.03-.16-.08-.13-.22.22-1.24,1.15-2.2,2.42-2.46.3-.06.61-.13.92-.11Z"/>
            <path class="cls-12" d="M381.67,168.84c.32.36.61.74.74,1.22.23.82.16,1.62-.18,2.4-.14.32-.34.6-.5.91-.59.8-1.4,1.38-2.15,2.01-.4.33-.77.69-1.09,1.11-.1.13-.17.19-.32.03-.63-.72-1.41-1.27-2.17-1.83-.88-.65-1.59-1.44-1.96-2.48-.45-1.26-.22-2.39.74-3.35.11-.11.17-.12.28,0,.96.86,2.1,1.25,3.38,1.13,1.06-.1,2.01-.48,2.75-1.28.11-.12.19-.11.29-.02.06.05.11.11.17.17Z"/>
            <path class="cls-12" d="M369.54,164.95c-.18-.44-.37-.88-.47-1.36-.15-.66-.19-1.33-.36-1.98-.1-.38-.19-.76-.33-1.13-.12-.33-.1-.34.23-.42.93-.21,1.81-.58,2.67-1,.74-.27,1.5-.47,2.3-.45.71.02,1.4.16,2,.57.65.44,1.04,1.07,1.23,1.83.04.16-.04.2-.17.25-1.26.45-2.17,1.28-2.7,2.52-.39.92-.46,1.86-.21,2.83.04.16.02.23-.15.29-1.18.41-2.49.05-3.33-.91-.27-.32-.5-.66-.71-1.02Z"/>
            <path class="cls-12" d="M376.11,166.69c.29.44.71.8,1.19,1.02.07.03.29.16.36.09,0,0,.01-.02.01-.03,0-.5-.05-1.01-.08-1.51-.01-.16-.03-.33-.11-.46-.09-.14-.25-.23-.4-.3-.48-.24-.95-.49-1.43-.75-.06.66.1,1.35.45,1.91,0,0,.01.02.02.03Z"/>
            <path class="cls-12" d="M380.11,166.52c.26-.46.4-1,.37-1.53,0-.08,0-.33-.08-.36-.01,0-.02,0-.04,0-.45.24-.88.5-1.31.76-.14.08-.28.17-.36.31-.08.15-.09.33-.08.5,0,.54,0,1.07-.02,1.61.62-.25,1.16-.7,1.49-1.27,0,0,.01-.02.02-.03Z"/>
            <path class="cls-12" d="M377.97,163.23c-.53.01-1.06.17-1.5.47-.07.04-.29.16-.27.25,0,.01.01.02.02.03.43.26.88.5,1.32.73.14.07.29.15.45.15.17,0,.32-.09.47-.18.46-.28.92-.55,1.39-.81-.53-.4-1.19-.63-1.86-.63-.01,0-.02,0-.03,0Z"/>
          </g>
          <g>
            <path class="cls-12" d="M372.47,184.82c.15.75.1,1.5-.05,2.25-.15.74-.26,1.49-.23,2.25,0,.09-.01.13-.12.12-.92-.14-1.83-.03-2.75.02-.96.05-1.89-.12-2.71-.66-.87-.57-1.29-1.39-1.23-2.44.01-.19.06-.26.27-.26,1.67,0,3.09-.99,3.68-2.55.13-.33.21-.68.23-1.04,0-.11.04-.15.16-.15,1.09-.01,2.07.64,2.5,1.68.1.25.21.5.24.77Z"/>
            <path class="cls-12" d="M363.39,185.83c-.26.33-.54.64-.92.83-.66.33-1.36.4-2.08.23-.3-.07-.57-.2-.86-.28-.78-.38-1.4-.98-2.07-1.52-.35-.29-.72-.55-1.13-.75-.13-.06-.19-.12-.08-.27.52-.65.86-1.41,1.22-2.15.41-.85.98-1.59,1.81-2.08,1.01-.59,2.01-.57,2.99.1.11.07.13.12.05.24-.58.96-.73,2-.43,3.08.25.89.74,1.65,1.54,2.15.12.07.12.15.07.25-.03.06-.08.12-.12.17Z"/>
            <path class="cls-12" d="M364.78,174.8c.35-.23.7-.46,1.09-.62.54-.23,1.11-.38,1.64-.62.31-.14.62-.29.91-.46.26-.16.28-.15.4.13.33.77.79,1.46,1.28,2.13.35.59.64,1.21.76,1.9.1.62.08,1.23-.17,1.81-.27.63-.75,1.06-1.37,1.35-.13.06-.18,0-.24-.11-.59-1.01-1.45-1.66-2.59-1.91-.85-.19-1.67-.1-2.46.27-.13.06-.19.06-.27-.08-.54-.95-.45-2.13.25-3.01.23-.29.49-.54.77-.77Z"/>
            <path class="cls-12" d="M364.33,180.72c-.33.32-.58.74-.69,1.18-.02.07-.09.27-.02.32,0,0,.02,0,.03,0,.43-.09.86-.2,1.28-.31.13-.04.28-.08.38-.17.11-.1.15-.25.19-.4.13-.45.27-.9.41-1.34-.58.06-1.14.3-1.56.7,0,0-.01.01-.02.02Z"/>
            <path class="cls-12" d="M365.13,184.12c.44.15.92.18,1.37.07.07-.02.28-.04.3-.12,0-.01,0-.02-.01-.03-.27-.34-.57-.67-.86-1-.09-.1-.19-.21-.33-.26-.14-.05-.29-.02-.44,0-.46.09-.92.17-1.38.24.31.49.78.88,1.33,1.08,0,0,.02,0,.03,0Z"/>
            <path class="cls-12" d="M367.6,181.76c-.09-.45-.32-.88-.64-1.21-.05-.05-.18-.22-.26-.19,0,0-.02.01-.02.02-.16.41-.28.83-.41,1.25-.04.13-.08.27-.05.41.03.15.13.26.23.37.31.35.62.7.92,1.06.26-.52.35-1.12.24-1.69,0,0,0-.02,0-.03Z"/>
          </g>
          <g>
            <path class="cls-12" d="M350.82,199.47c-.5.42-1.07.7-1.69.89-.61.2-1.21.42-1.77.76-.07.04-.1.04-.13-.04-.28-.74-.74-1.37-1.15-2.03-.43-.69-.69-1.45-.63-2.28.07-.88.5-1.53,1.3-1.92.14-.07.21-.07.3.09.69,1.24,2.01,1.89,3.41,1.67.3-.05.59-.13.86-.26.08-.04.12-.03.18.06.46.81.38,1.8-.22,2.55-.14.18-.28.36-.47.5Z"/>
            <path class="cls-12" d="M346.32,193.15c-.35-.05-.7-.14-1-.34-.52-.36-.86-.85-1.03-1.45-.07-.25-.09-.5-.15-.75-.04-.74.14-1.45.27-2.16.07-.38.11-.76.09-1.15,0-.12,0-.19.17-.17.7.12,1.4.06,2.1.02.8-.05,1.58.07,2.29.49.85.51,1.26,1.26,1.17,2.26-.01.11-.04.14-.16.14-.96-.04-1.79.28-2.46.95-.56.56-.92,1.23-.96,2.03,0,.12-.06.15-.16.15-.06,0-.12-.01-.18-.02Z"/>
            <path class="cls-12" d="M355.08,189.63c.31.17.63.33.91.55.39.3.74.67,1.14.96.23.17.47.34.72.49.22.13.22.15.07.35-.43.56-.76,1.19-1.05,1.83-.3.5-.63.98-1.1,1.35-.42.33-.88.57-1.41.62-.58.06-1.1-.12-1.57-.46-.1-.07-.07-.13-.02-.22.51-.85.63-1.76.35-2.71-.21-.71-.62-1.28-1.22-1.71-.1-.07-.12-.12-.05-.23.48-.79,1.4-1.21,2.33-1.06.31.05.6.14.89.25Z"/>
            <path class="cls-12" d="M350.51,191.74c-.38-.12-.78-.12-1.16-.02-.06.02-.24.05-.25.11,0,0,0,.02,0,.02.24.28.5.55.76.82.08.09.17.17.28.21.12.04.25,0,.37-.02.39-.09.78-.17,1.17-.25-.28-.41-.69-.72-1.16-.87,0,0-.02,0-.02,0Z"/>
            <path class="cls-12" d="M348.31,193.73c.07.39.25.75.51,1.04.04.04.15.19.21.17,0,0,.01-.01.02-.02.14-.35.26-.7.38-1.05.04-.11.08-.23.06-.35-.02-.12-.11-.23-.19-.32-.26-.3-.51-.61-.75-.93-.23.43-.33.94-.25,1.43,0,0,0,.02,0,.02Z"/>
            <path class="cls-12" d="M351.08,194.59c.3-.26.52-.6.63-.97.02-.06.09-.23.03-.27,0,0-.02,0-.03,0-.37.05-.73.13-1.1.21-.12.02-.24.05-.33.13-.1.08-.14.21-.18.33-.13.38-.27.75-.41,1.12.49-.02.98-.2,1.36-.52,0,0,.01-.01.02-.02Z"/>
          </g>
          <g>
            <path class="cls-12" d="M336.12,206.22c-.46-.02-.89-.16-1.3-.35-.41-.19-.83-.36-1.27-.46-.05-.01-.07-.03-.05-.08.21-.51.28-1.06.39-1.59.11-.56.34-1.08.77-1.47.46-.42.99-.55,1.59-.36.11.03.14.07.11.19-.24.97.13,1.94.95,2.5.18.12.37.22.57.28.06.02.08.04.06.12-.15.64-.67,1.11-1.34,1.21-.16.02-.32.05-.48.03Z"/>
            <path class="cls-12" d="M336.85,200.81c-.16-.2-.29-.41-.35-.66-.09-.43-.03-.85.17-1.24.08-.16.2-.3.29-.46.33-.4.77-.67,1.18-.98.22-.16.42-.34.6-.54.06-.07.1-.1.17,0,.3.4.69.7,1.07,1.02.44.36.78.8.94,1.35.19.67.04,1.25-.49,1.72-.06.05-.09.05-.15,0-.47-.48-1.05-.72-1.72-.69-.55.02-1.06.19-1.47.58-.06.06-.1.05-.15,0-.03-.03-.06-.06-.08-.09Z"/>
            <path class="cls-12" d="M343.04,203.21c.08.24.16.47.2.72.06.35.06.7.12,1.04.04.2.08.4.14.6.05.17.04.18-.13.21-.49.08-.96.24-1.42.44-.39.12-.8.2-1.21.16-.37-.03-.72-.13-1.02-.36-.33-.25-.51-.59-.58-.99-.02-.08.03-.1.1-.12.67-.19,1.17-.6,1.48-1.22.23-.46.3-.95.2-1.46-.02-.08,0-.12.09-.14.63-.18,1.3.05,1.71.58.13.17.24.36.33.55Z"/>
            <path class="cls-12" d="M339.68,202.1c-.14-.24-.34-.44-.59-.57-.04-.02-.15-.09-.18-.06,0,0,0,.01,0,.02-.01.26,0,.53,0,.79,0,.08,0,.17.05.24.04.08.12.12.2.17.24.14.48.29.72.43.05-.34,0-.7-.18-1.01,0,0,0,0,0-.01Z"/>
            <path class="cls-12" d="M337.59,202.07c-.15.23-.24.51-.24.78,0,.04-.02.17.03.19,0,0,.01,0,.02,0,.24-.11.47-.23.7-.36.07-.04.15-.08.2-.15.05-.07.05-.17.06-.26.02-.28.04-.56.06-.84-.33.11-.62.33-.82.62,0,0,0,0,0,.01Z"/>
            <path class="cls-12" d="M338.6,203.84c.28.01.56-.06.79-.2.04-.02.16-.07.15-.12,0,0,0-.01-.01-.02-.22-.15-.44-.29-.67-.42-.07-.04-.15-.09-.23-.09-.09,0-.17.04-.25.08-.25.13-.5.26-.75.38.26.23.6.37.95.38,0,0,.01,0,.02,0Z"/>
          </g>
          <g>
            <path class="cls-12" d="M323.65,206.34c-.25-.25-.43-.55-.57-.88-.14-.33-.29-.64-.5-.93-.03-.03-.03-.05.01-.07.39-.19.71-.47,1.05-.73.36-.27.76-.45,1.21-.46.48,0,.86.2,1.11.61.05.07.05.11-.03.17-.64.44-.93,1.19-.74,1.95.04.16.1.32.18.46.03.04.02.07-.02.1-.42.29-.96.3-1.4,0-.11-.07-.21-.14-.3-.23Z"/>
            <path class="cls-12" d="M326.88,203.57c.01-.2.04-.39.14-.56.17-.3.42-.51.74-.63.13-.05.27-.07.4-.12.4-.06.8,0,1.19.04.21.02.42.02.63,0,.07,0,.11,0,.1.08-.03.39.04.77.09,1.15.07.44.04.87-.15,1.27-.23.49-.62.75-1.18.75-.06,0-.08-.02-.08-.08-.03-.52-.24-.96-.64-1.3-.33-.28-.71-.44-1.16-.42-.06,0-.09-.02-.09-.08,0-.03,0-.07,0-.1Z"/>
            <path class="cls-12" d="M329.23,208.18c-.08.18-.15.36-.25.53-.15.23-.33.44-.47.67-.08.14-.16.27-.23.42-.06.13-.07.13-.19.05-.33-.21-.69-.36-1.05-.48-.29-.14-.57-.3-.79-.53-.2-.21-.35-.45-.41-.74-.06-.31.01-.61.17-.88.03-.06.07-.05.12-.02.49.24.99.26,1.5.06.38-.15.67-.4.88-.75.03-.06.06-.07.12-.04.46.22.73.7.69,1.22-.01.17-.05.33-.09.5Z"/>
            <path class="cls-12" d="M327.85,205.79c.04-.21.03-.43-.05-.64-.01-.03-.04-.13-.07-.13,0,0,0,0-.01,0-.14.15-.28.3-.41.46-.04.05-.09.1-.1.17-.01.07,0,.14.03.2.07.21.13.42.19.62.21-.17.36-.41.42-.68,0,0,0,0,0-.01Z"/>
            <path class="cls-12" d="M326.66,204.68c-.21.06-.4.17-.55.33-.02.02-.1.09-.08.13,0,0,0,0,.01,0,.2.06.39.11.59.16.06.02.13.03.19.01.07-.02.12-.07.17-.12.15-.15.31-.31.47-.46-.25-.11-.53-.13-.79-.06,0,0,0,0-.01,0Z"/>
            <path class="cls-12" d="M326.32,206.24c.15.15.35.26.56.3.03,0,.13.04.15,0,0,0,0,0,0-.01-.05-.2-.11-.39-.17-.59-.02-.06-.04-.13-.09-.17-.05-.05-.12-.07-.19-.08-.21-.05-.42-.11-.63-.17.04.27.16.52.35.71,0,0,0,0,0,0Z"/>
          </g>
          <g>
            <path class="cls-12" d="M320.27,211.39c.2-.22.45-.37.72-.5.27-.12.53-.26.76-.44.03-.02.04-.03.06.01.17.32.41.58.63.86.23.29.39.62.41,1,.02.4-.14.72-.49.94-.06.04-.09.04-.14-.03-.38-.53-1.02-.75-1.64-.58-.13.04-.26.09-.38.16-.04.02-.06.02-.08-.02-.25-.34-.27-.8-.04-1.17.06-.09.11-.18.19-.25Z"/>
            <path class="cls-12" d="M322.65,214.02c.16,0,.33.02.47.1.26.13.43.34.55.61.05.11.07.22.11.34.06.33.01.67,0,1-.01.18-.01.35.02.53,0,.06,0,.09-.07.08-.32-.02-.64.05-.96.1-.36.06-.72.05-1.07-.1-.41-.19-.64-.5-.65-.97,0-.05.01-.07.06-.07.44-.03.8-.22,1.07-.56.22-.28.35-.61.33-.97,0-.05.02-.07.06-.08.03,0,.05,0,.08,0Z"/>
            <path class="cls-12" d="M318.85,216.09c-.15-.06-.3-.12-.44-.2-.2-.12-.37-.26-.57-.38-.12-.07-.23-.13-.35-.18-.11-.05-.11-.05-.05-.16.17-.28.28-.58.38-.89.11-.24.24-.48.43-.67.17-.17.37-.31.61-.36.26-.06.51,0,.74.13.05.03.04.06.02.1-.19.41-.19.83-.02,1.25.13.31.35.55.64.71.05.03.06.05.04.1-.18.39-.57.62-1,.6-.14,0-.28-.03-.42-.07Z"/>
            <path class="cls-12" d="M320.82,214.89c.18.03.36.01.53-.05.02,0,.11-.03.11-.07,0,0,0,0,0-.01-.13-.12-.26-.22-.39-.33-.04-.03-.09-.07-.14-.08-.06-.01-.11,0-.17.03-.17.06-.34.12-.52.18.15.17.35.29.57.34,0,0,0,0,.01,0Z"/>
            <path class="cls-12" d="M321.72,213.86c-.05-.17-.15-.33-.29-.45-.02-.02-.08-.08-.11-.07,0,0,0,0,0,.01-.05.16-.08.33-.12.5-.01.05-.02.11,0,.16.02.06.06.1.1.14.13.12.26.25.39.38.08-.21.1-.45.04-.66,0,0,0,0,0-.01Z"/>
            <path class="cls-12" d="M320.41,213.62c-.12.13-.21.3-.24.48,0,.03-.03.11,0,.13,0,0,0,0,.01,0,.17-.04.33-.1.49-.15.05-.02.11-.04.14-.08.04-.04.05-.1.07-.16.04-.18.08-.35.13-.53-.22.04-.43.14-.59.31,0,0,0,0,0,0Z"/>
          </g>
          <g>
            <path class="cls-12" d="M311.92,213.31c.18-.15.39-.25.62-.32.22-.07.44-.15.64-.27.02-.01.04-.02.05.01.1.27.27.5.41.74.16.25.25.53.23.83-.03.32-.18.56-.48.7-.05.03-.08.02-.11-.03-.25-.45-.73-.69-1.24-.62-.11.02-.22.05-.32.09-.03.01-.05.01-.06-.02-.17-.29-.14-.65.08-.93.05-.07.1-.13.17-.18Z"/>
            <path class="cls-12" d="M313.54,215.62c.13.02.25.05.36.13.19.13.31.31.37.53.03.09.03.18.05.28.01.27-.06.53-.1.79-.03.14-.04.28-.04.42,0,.04,0,.07-.06.06-.25-.04-.51-.02-.77-.01-.29.02-.58-.03-.83-.18-.31-.19-.46-.46-.42-.82,0-.04.02-.05.06-.05.35.01.65-.1.9-.34.2-.2.34-.44.35-.74,0-.04.02-.06.06-.05.02,0,.04,0,.06,0Z"/>
            <path class="cls-12" d="M310.35,216.89c-.11-.06-.23-.12-.33-.2-.14-.11-.27-.24-.41-.35-.08-.06-.17-.12-.26-.18-.08-.05-.08-.05-.02-.13.16-.2.28-.43.39-.66.11-.18.23-.35.4-.49.15-.12.32-.21.51-.22.21-.02.4.05.57.17.04.03.03.05,0,.08-.19.31-.23.64-.13.99.07.26.22.47.44.63.04.03.04.04.02.08-.18.29-.51.44-.85.38-.11-.02-.22-.05-.32-.09Z"/>
            <path class="cls-12" d="M312.02,216.13c.14.04.29.05.42,0,.02,0,.09-.02.09-.04,0,0,0,0,0,0-.09-.1-.18-.2-.28-.3-.03-.03-.06-.06-.1-.08-.04-.01-.09,0-.14,0-.14.03-.28.06-.42.09.1.15.25.26.42.32,0,0,0,0,0,0Z"/>
            <path class="cls-12" d="M312.82,215.41c-.02-.14-.09-.28-.18-.38-.01-.02-.05-.07-.08-.06,0,0,0,0,0,0-.05.13-.1.25-.14.38-.01.04-.03.08-.02.13,0,.05.04.08.07.12.09.11.18.22.27.34.09-.16.12-.34.09-.52,0,0,0,0,0,0Z"/>
            <path class="cls-12" d="M311.81,215.09c-.11.09-.19.22-.23.35,0,.02-.03.08-.01.1,0,0,0,0,0,0,.13-.02.27-.05.4-.07.04,0,.09-.02.12-.05.03-.03.05-.08.07-.12.05-.14.1-.27.15-.41-.18,0-.36.07-.49.19,0,0,0,0,0,0Z"/>
          </g>
          <g>
            <path class="cls-12" d="M308.55,219.81c.19.06.35.16.5.29.15.13.3.24.48.33.02.01.03.02.01.04-.14.19-.23.41-.34.62-.11.22-.26.41-.48.52-.24.12-.47.12-.7-.03-.04-.03-.05-.04-.02-.09.21-.37.16-.82-.12-1.14-.06-.07-.13-.13-.2-.18-.02-.02-.03-.03-.01-.05.13-.25.4-.38.69-.35.07,0,.14.01.2.04Z"/>
            <path class="cls-12" d="M307.65,221.97c.04.1.08.2.07.31,0,.19-.08.35-.21.5-.05.06-.11.1-.17.16-.18.13-.39.19-.6.27-.11.04-.21.09-.31.16-.03.02-.05.03-.07-.02-.08-.2-.21-.37-.33-.54-.14-.2-.24-.42-.24-.66,0-.3.12-.52.39-.66.03-.02.04-.01.06.02.14.25.36.41.64.48.23.05.46.04.67-.08.03-.02.05,0,.06.02,0,.02.02.03.02.05Z"/>
            <path class="cls-12" d="M305.35,220.29c0-.11-.02-.21,0-.32.01-.15.05-.3.06-.45,0-.09.01-.17,0-.26,0-.08,0-.08.08-.07.21.02.42,0,.64-.02.18,0,.35,0,.52.07.15.05.29.13.38.26.11.14.14.3.13.48,0,.04-.02.04-.05.04-.3,0-.55.12-.75.34-.15.17-.23.36-.24.58,0,.04-.01.05-.05.05-.28,0-.53-.16-.64-.43-.04-.09-.06-.18-.08-.27Z"/>
            <path class="cls-12" d="M306.62,221.13c.03.11.09.22.18.3.01.01.05.05.07.05,0,0,0,0,0,0,.03-.11.06-.22.09-.33,0-.03.02-.07,0-.11,0-.04-.04-.07-.06-.09-.08-.09-.17-.17-.25-.26-.06.14-.07.29-.04.44,0,0,0,0,0,0Z"/>
            <path class="cls-12" d="M307.48,221.37c.09-.08.15-.18.19-.3,0-.02.03-.07,0-.08,0,0,0,0,0,0-.11.02-.22.04-.33.07-.03,0-.07.02-.1.04-.03.03-.04.06-.05.1-.04.11-.08.23-.12.34.15,0,.29-.07.41-.16,0,0,0,0,0,0Z"/>
            <path class="cls-12" d="M307.26,220.52c-.11-.04-.24-.04-.35,0-.02,0-.07.01-.07.03,0,0,0,0,0,0,.07.09.15.17.23.25.02.03.05.05.09.06.04.01.08,0,.11,0,.12-.03.23-.05.35-.07-.08-.12-.21-.22-.35-.26,0,0,0,0,0,0Z"/>
          </g>
          <g>
            <path class="cls-12" d="M301.98,220.44c.03.16.03.32,0,.49-.03.16-.05.32-.04.49,0,.02,0,.03-.02.03-.2-.03-.39,0-.59.01-.21.01-.41-.02-.59-.14-.19-.12-.28-.3-.27-.52,0-.04.01-.06.06-.06.36,0,.66-.22.79-.56.03-.07.04-.15.05-.22,0-.02,0-.03.03-.03.24,0,.45.13.54.36.02.05.05.11.05.17Z"/>
            <path class="cls-12" d="M300.02,220.68c-.05.07-.12.14-.2.18-.14.07-.29.09-.45.05-.06-.01-.12-.04-.19-.06-.17-.08-.31-.21-.45-.32-.08-.06-.16-.12-.24-.16-.03-.01-.04-.03-.02-.06.11-.14.18-.31.26-.47.09-.19.21-.35.39-.45.22-.13.43-.13.65.01.02.02.03.03.01.05-.12.21-.15.43-.09.67.06.19.16.35.34.46.03.02.03.03.01.05,0,.01-.02.03-.03.04Z"/>
            <path class="cls-12" d="M300.3,218.3c.08-.05.15-.1.23-.14.12-.05.24-.08.35-.14.07-.03.13-.06.2-.1.06-.03.06-.03.09.03.07.16.17.31.28.46.08.13.14.26.17.41.02.13.02.26-.03.39-.06.14-.16.23-.29.29-.03.01-.04,0-.05-.02-.13-.22-.32-.35-.56-.41-.18-.04-.36-.02-.53.06-.03.01-.04.01-.06-.02-.12-.2-.1-.46.05-.65.05-.06.1-.12.16-.17Z"/>
            <path class="cls-12" d="M300.21,219.57c-.07.07-.12.16-.15.26,0,.01-.02.06,0,.07,0,0,0,0,0,0,.09-.02.18-.05.28-.07.03,0,.06-.02.08-.04.02-.02.03-.05.04-.09.03-.1.06-.19.09-.29-.12.01-.25.07-.34.15,0,0,0,0,0,0Z"/>
            <path class="cls-12" d="M300.39,220.3c.09.03.2.04.3.01.01,0,.06-.01.06-.03,0,0,0,0,0,0-.06-.07-.12-.14-.19-.21-.02-.02-.04-.05-.07-.05-.03-.01-.06,0-.09,0-.1.02-.2.04-.3.06.07.1.17.19.29.23,0,0,0,0,0,0Z"/>
            <path class="cls-12" d="M300.92,219.79c-.02-.1-.07-.19-.14-.26-.01-.01-.04-.05-.06-.04,0,0,0,0,0,0-.03.09-.06.18-.09.27,0,.03-.02.06-.01.09,0,.03.03.06.05.08.07.07.13.15.2.23.05-.11.07-.24.05-.37,0,0,0,0,0,0Z"/>
          </g>
          <g>
            <path class="cls-12" d="M296.46,225.96c-.12.09-.26.15-.41.18-.15.04-.29.08-.42.15-.02,0-.02,0-.03-.01-.05-.18-.15-.33-.24-.49-.09-.17-.14-.35-.12-.54.03-.2.14-.35.33-.43.03-.01.05-.01.07.03.14.3.44.47.77.44.07,0,.14-.02.21-.05.02,0,.03,0,.04.02.1.19.06.42-.08.59-.04.04-.07.08-.12.11Z"/>
            <path class="cls-12" d="M295.5,224.43c-.08-.02-.16-.04-.23-.09-.12-.09-.19-.21-.22-.35-.01-.06-.01-.12-.02-.18,0-.17.05-.33.09-.5.02-.09.04-.18.04-.27,0-.03,0-.04.04-.04.16.04.33.03.49.03.19,0,.37.04.53.14.19.13.28.31.24.54,0,.03-.01.03-.04.03-.22-.02-.42.04-.59.19-.14.12-.23.27-.25.46,0,.03-.02.03-.04.03-.01,0-.03,0-.04,0Z"/>
            <path class="cls-12" d="M297.59,223.73c.07.04.14.09.21.14.09.08.16.17.25.24.05.04.1.09.16.12.05.03.05.04.01.08-.11.13-.19.27-.27.41-.08.11-.16.22-.27.3-.1.07-.21.12-.34.13-.14,0-.25-.04-.36-.13-.02-.02-.01-.03,0-.05.13-.19.17-.4.12-.63-.04-.17-.13-.31-.26-.42-.02-.02-.03-.03,0-.05.12-.18.34-.26.56-.21.07.02.14.04.2.07Z"/>
            <path class="cls-12" d="M296.49,224.16c-.09-.03-.18-.04-.27-.02-.01,0-.06,0-.06.02,0,0,0,0,0,0,.05.07.11.14.17.2.02.02.04.04.06.05.03.01.06,0,.09,0,.09-.02.18-.03.28-.04-.06-.1-.15-.18-.26-.22,0,0,0,0,0,0Z"/>
            <path class="cls-12" d="M295.95,224.59c.01.09.05.18.1.25,0,.01.03.05.05.04,0,0,0,0,0,0,.04-.08.07-.16.1-.24.01-.03.02-.05.02-.08,0-.03-.02-.05-.04-.08-.06-.07-.11-.15-.16-.23-.06.1-.09.22-.08.33,0,0,0,0,0,0Z"/>
            <path class="cls-12" d="M296.59,224.83c.07-.06.13-.13.16-.22,0-.01.02-.05.01-.06,0,0,0,0,0,0-.09,0-.17.02-.26.03-.03,0-.06,0-.08.03-.02.02-.04.05-.05.07-.04.09-.07.17-.11.26.12,0,.23-.03.32-.1,0,0,0,0,0,0Z"/>
          </g>
          <g>
            <path class="cls-12" d="M292.4,222.16c-.08.06-.17.1-.26.12-.09.02-.19.05-.27.1-.01,0-.02,0-.02,0-.04-.11-.1-.21-.16-.32-.06-.11-.09-.23-.08-.35.02-.13.09-.23.21-.28.02,0,.03,0,.04.02.09.19.29.3.5.28.05,0,.09-.01.13-.03.01,0,.02,0,.03.01.06.13.04.27-.06.38-.02.03-.05.05-.08.07Z"/>
            <path class="cls-12" d="M291.78,221.17c-.05-.01-.1-.03-.15-.06-.08-.06-.12-.14-.14-.23,0-.04,0-.08-.02-.12,0-.11.03-.22.06-.32.01-.06.02-.11.02-.17,0-.02,0-.03.03-.02.1.02.21.02.32.02.12,0,.24.02.34.09.12.08.18.2.16.35,0,.02,0,.02-.03.02-.14-.01-.27.03-.38.12-.09.08-.15.18-.16.3,0,.02,0,.02-.02.02,0,0-.02,0-.03,0Z"/>
            <path class="cls-12" d="M293.13,220.71s.09.06.13.09c.06.05.11.11.16.16.03.03.07.06.1.08.03.02.03.02,0,.05-.07.08-.13.17-.17.27-.05.07-.1.14-.18.19-.07.05-.14.08-.22.08-.09,0-.17-.03-.23-.08-.01-.01,0-.02,0-.03.08-.12.11-.26.08-.41-.03-.11-.08-.2-.17-.27-.01-.01-.02-.02,0-.04.08-.12.22-.17.36-.14.05.01.09.03.13.05Z"/>
            <path class="cls-12" d="M292.42,220.99c-.06-.02-.12-.03-.18-.01,0,0-.04,0-.04.02,0,0,0,0,0,0,.03.05.07.09.11.13.01.01.02.03.04.03.02,0,.04,0,.06,0,.06,0,.12-.02.18-.03-.04-.06-.1-.12-.17-.14,0,0,0,0,0,0Z"/>
            <path class="cls-12" d="M292.08,221.27c0,.06.03.12.07.16,0,0,.02.03.03.03,0,0,0,0,0,0,.02-.05.05-.1.07-.16,0-.02.01-.03.01-.05,0-.02-.01-.04-.03-.05-.04-.05-.07-.1-.11-.15-.04.06-.06.14-.05.21,0,0,0,0,0,0Z"/>
            <path class="cls-12" d="M292.49,221.43s.08-.09.1-.14c0,0,.02-.03,0-.04,0,0,0,0,0,0-.06,0-.11.01-.17.02-.02,0-.04,0-.05.02-.02.01-.02.03-.03.05-.02.06-.05.11-.07.17.07,0,.15-.02.21-.07,0,0,0,0,0,0Z"/>
          </g>
          <g>
            <path class="cls-12" d="M289.49,225.66c-.08-.02-.16-.05-.23-.1-.07-.05-.14-.09-.22-.12,0,0-.01,0,0-.02.05-.09.08-.19.11-.28.04-.1.09-.19.18-.25.1-.06.2-.07.3-.02.02,0,.02.02.02.04-.07.17-.03.36.11.48.03.03.06.05.1.07.01,0,.01.01,0,.02-.04.11-.15.19-.28.19-.03,0-.06,0-.09,0Z"/>
            <path class="cls-12" d="M289.76,224.69s-.04-.08-.05-.13c0-.08.02-.16.06-.22.02-.03.04-.05.06-.08.07-.06.16-.1.24-.15.04-.02.09-.05.12-.08.01-.01.02-.01.03,0,.05.08.11.15.17.22.07.08.12.17.14.27.02.13-.03.23-.14.3-.01,0-.02,0-.03,0-.07-.1-.17-.16-.3-.17-.1-.01-.2,0-.29.07-.01,0-.02,0-.03,0,0,0,0-.01-.01-.02Z"/>
            <path class="cls-12" d="M290.84,225.3s.02.09.02.14c0,.06,0,.13,0,.19,0,.04,0,.08,0,.11,0,.03,0,.03-.03.04-.09,0-.18.02-.27.04-.08.01-.15.02-.23,0-.07-.02-.13-.04-.18-.09-.05-.05-.08-.12-.08-.2,0-.02,0-.02.02-.02.13-.02.23-.08.3-.19.05-.08.08-.17.08-.26,0-.02,0-.02.02-.02.12-.02.24.04.3.15.02.04.03.07.05.11Z"/>
            <path class="cls-12" d="M290.25,225s-.05-.09-.09-.12c0,0-.02-.02-.03-.02,0,0,0,0,0,0,0,.05-.02.1-.02.14,0,.02,0,.03,0,.05,0,.02.02.03.03.04.04.03.08.07.12.1.02-.06.02-.13,0-.19,0,0,0,0,0,0Z"/>
            <path class="cls-12" d="M289.87,224.94s-.06.09-.06.14c0,0,0,.03,0,.04,0,0,0,0,0,0,.05-.01.09-.03.14-.05.01,0,.03-.01.04-.02.01-.01.01-.03.02-.05.01-.05.02-.1.03-.15-.06.01-.12.04-.17.09,0,0,0,0,0,0Z"/>
            <path class="cls-12" d="M290,225.29c.05,0,.1,0,.15-.01,0,0,.03,0,.03-.02,0,0,0,0,0,0-.04-.03-.07-.06-.11-.09-.01,0-.02-.02-.04-.02-.02,0-.03,0-.05,0-.05.02-.1.03-.15.05.04.05.1.08.16.1,0,0,0,0,0,0Z"/>
          </g>
          <g>
            <path class="cls-12" d="M285.25,223.76c-.07-.03-.13-.07-.18-.13-.05-.05-.11-.1-.17-.14,0,0,0,0,0-.02.06-.07.1-.15.15-.23.05-.08.11-.15.2-.19.09-.04.18-.03.27.03.01.01.02.02,0,.04-.09.14-.09.31,0,.44.02.03.04.05.07.08,0,0,0,.01,0,.02-.06.09-.16.14-.27.11-.03,0-.05,0-.08-.02Z"/>
            <path class="cls-12" d="M285.66,222.96s-.02-.08-.02-.12c0-.07.04-.13.09-.18.02-.02.05-.04.07-.06.07-.04.16-.06.24-.09.04-.01.08-.03.12-.05.01,0,.02,0,.03,0,.03.08.07.15.11.22.05.08.08.17.07.26,0,.11-.06.2-.17.24-.01,0-.02,0-.02,0-.05-.1-.12-.17-.23-.2-.09-.03-.18-.03-.26,0-.01,0-.02,0-.02,0,0,0,0-.01,0-.02Z"/>
            <path class="cls-12" d="M286.49,223.68s0,.08,0,.12c-.01.06-.03.11-.04.17,0,.03,0,.07-.01.1,0,.03,0,.03-.03.03-.08-.01-.16-.01-.24-.01-.07,0-.13-.01-.2-.04-.06-.03-.11-.06-.14-.11-.04-.06-.05-.12-.04-.19,0-.01.01-.01.02-.01.12,0,.21-.03.3-.11.06-.06.1-.13.11-.22,0-.01,0-.02.02-.02.11,0,.2.08.23.18.01.03.02.07.02.1Z"/>
            <path class="cls-12" d="M286.03,223.32s-.03-.09-.06-.12c0,0-.02-.02-.03-.02,0,0,0,0,0,0-.02.04-.03.08-.04.12,0,.01,0,.03,0,.04,0,.01.01.03.02.04.03.04.06.07.09.11.03-.05.04-.11.03-.17,0,0,0,0,0,0Z"/>
            <path class="cls-12" d="M285.7,223.2s-.06.07-.08.11c0,0-.01.03,0,.03,0,0,0,0,0,0,.04,0,.09-.01.13-.02.01,0,.03,0,.04-.01.01,0,.02-.02.02-.04.02-.04.04-.08.06-.13-.06,0-.11.02-.16.05,0,0,0,0,0,0Z"/>
            <path class="cls-12" d="M285.76,223.53s.09.02.13.01c0,0,.03,0,.03-.01,0,0,0,0,0,0-.03-.04-.05-.07-.08-.1,0-.01-.02-.02-.03-.03-.01,0-.03,0-.04,0-.05,0-.09.01-.14.02.03.05.07.09.13.11,0,0,0,0,0,0Z"/>
          </g>
          <g>
            <path class="cls-12" d="M283.85,226.55c.06.04.1.09.14.15.04.06.08.12.12.16,0,0,0,0,0,.01-.07.05-.12.11-.18.17-.06.06-.13.11-.22.12-.09.02-.17-.01-.23-.09-.01-.01-.01-.02,0-.03.11-.1.15-.26.09-.4-.01-.03-.03-.06-.05-.08,0,0,0-.01,0-.02.07-.07.18-.09.27-.04.02.01.05.02.06.04Z"/>
            <path class="cls-12" d="M283.31,227.19s0,.08-.01.11c-.02.06-.07.11-.13.14-.02.01-.05.02-.08.03-.08.02-.15.02-.23.03-.04,0-.08,0-.12.02-.01,0-.02,0-.02-.01,0-.08-.03-.15-.05-.22-.03-.08-.03-.17,0-.25.03-.1.1-.16.21-.18.01,0,.02,0,.02.01.02.1.07.18.16.23.07.04.15.06.24.05.01,0,.02,0,.02.01,0,0,0,.01,0,.02Z"/>
            <path class="cls-12" d="M282.72,226.36s.02-.07.03-.11c.02-.05.05-.09.07-.14.01-.03.02-.06.03-.09,0-.03,0-.03.03-.02.07.03.14.05.22.06.06.02.12.04.17.08.04.03.08.08.1.13.02.06.02.12,0,.18,0,.01-.01.01-.02,0-.1-.03-.2-.02-.29.03-.07.04-.12.1-.15.17,0,.01,0,.02-.02.01-.1-.03-.16-.11-.17-.22,0-.03,0-.07,0-.1Z"/>
            <path class="cls-12" d="M283.05,226.78s0,.08.03.12c0,0,.01.02.02.02,0,0,0,0,0,0,.02-.03.04-.07.07-.1,0-.01.01-.02.01-.03,0-.01,0-.03-.01-.04-.02-.04-.04-.08-.06-.12-.04.04-.06.09-.06.14,0,0,0,0,0,0Z"/>
            <path class="cls-12" d="M283.32,226.96s.07-.04.1-.08c0,0,.02-.02.01-.03,0,0,0,0,0,0-.04,0-.08,0-.12-.01-.01,0-.03,0-.04,0-.01,0-.02.02-.03.03-.03.03-.05.07-.08.1.05.01.11.01.16-.01,0,0,0,0,0,0Z"/>
            <path class="cls-12" d="M283.34,226.65s-.08-.04-.12-.04c0,0-.03,0-.03,0,0,0,0,0,0,0,.02.04.03.07.05.11,0,.01.01.02.02.03.01,0,.03,0,.04.01.04,0,.08,0,.13.01-.01-.05-.05-.1-.09-.13,0,0,0,0,0,0Z"/>
          </g>
          <g>
            <path class="cls-12" d="M279.35,225.54s.09.05.13.09c.04.04.07.07.12.1,0,0,0,0,0,.01-.04.05-.07.1-.11.16-.04.06-.08.1-.14.13-.07.03-.13.02-.19-.03-.01,0-.01-.01,0-.03.07-.1.07-.22,0-.31-.01-.02-.03-.04-.05-.05,0,0,0,0,0-.02.04-.06.12-.09.19-.08.02,0,.04,0,.05.02Z"/>
            <path class="cls-12" d="M279.05,226.1s.02.06.01.09c0,.05-.03.09-.07.13-.02.01-.03.02-.05.04-.05.03-.11.04-.17.06-.03,0-.06.02-.09.03,0,0-.01,0-.02,0-.02-.06-.05-.11-.07-.16-.03-.06-.05-.12-.05-.19,0-.08.05-.14.12-.17,0,0,.01,0,.02,0,.03.07.09.12.16.15.06.02.12.02.18,0,0,0,.01,0,.02,0,0,0,0,0,0,.01Z"/>
            <path class="cls-12" d="M278.47,225.58s0-.06,0-.09c0-.04.02-.08.03-.12,0-.02,0-.05,0-.07,0-.02,0-.02.02-.02.06.01.11.01.17.01.05,0,.09.01.14.03.04.02.07.04.1.08.03.04.03.09.02.13,0,0,0,.01-.02,0-.08,0-.15.02-.21.07-.04.04-.07.09-.08.15,0,0,0,.01-.02.01-.08,0-.14-.06-.16-.13,0-.02-.01-.05-.01-.07Z"/>
            <path class="cls-12" d="M278.79,225.84s.02.06.04.09c0,0,.01.02.02.01,0,0,0,0,0,0,.01-.03.02-.06.03-.09,0,0,0-.02,0-.03,0-.01,0-.02-.01-.03-.02-.03-.04-.05-.06-.08-.02.04-.03.08-.02.12,0,0,0,0,0,0Z"/>
            <path class="cls-12" d="M279.02,225.93s.05-.05.06-.08c0,0,0-.02,0-.02,0,0,0,0,0,0-.03,0-.06,0-.09,0,0,0-.02,0-.03,0,0,0-.01.02-.02.03-.01.03-.03.06-.04.09.04,0,.08,0,.11-.03,0,0,0,0,0,0Z"/>
            <path class="cls-12" d="M278.98,225.69s-.06-.02-.09-.01c0,0-.02,0-.02,0,0,0,0,0,0,0,.02.03.04.05.06.07,0,0,.01.02.02.02,0,0,.02,0,.03,0,.03,0,.06,0,.1-.01-.02-.04-.05-.06-.09-.08,0,0,0,0,0,0Z"/>
          </g>
          <g>
            <path class="cls-12" d="M421.45,59.85c-2.84.23-5.59-.25-8.28-1.11-2.68-.86-5.39-1.56-8.21-1.78-.34-.03-.48-.11-.38-.48.88-3.32.85-6.74,1.06-10.14.22-3.57,1.2-6.92,3.54-9.72,2.47-2.96,5.64-4.18,9.5-3.54.69.12.93.31.84,1.09-.69,6.16,2.39,11.83,7.9,14.62,1.18.6,2.43,1.04,3.74,1.27.4.07.52.21.48.66-.4,4.05-3.19,7.36-7.24,8.53-.97.28-1.93.58-2.96.59Z"/>
            <path class="cls-12" d="M421.46,25.91c-1.13-1.08-2.14-2.26-2.68-3.75-.94-2.59-.9-5.19.02-7.79.38-1.06.96-2.03,1.39-3.06,1.72-2.73,4.18-4.78,6.46-7.01,1.2-1.18,2.33-2.42,3.24-3.85.29-.45.52-.67,1.02-.17,2.2,2.19,4.84,3.76,7.45,5.4,2.98,1.88,5.47,4.26,6.92,7.54,1.75,3.97,1.29,7.67-1.59,11.01-.32.37-.51.41-.92.1-3.32-2.55-7.08-3.53-11.19-2.85-3.4.56-6.38,2.04-8.58,4.79-.32.4-.59.4-.94.14-.21-.15-.39-.34-.59-.51Z"/>
            <path class="cls-12" d="M461.6,35.59c.69,1.39,1.4,2.77,1.86,4.26.64,2.08.93,4.25,1.63,6.32.4,1.2.81,2.4,1.34,3.56.47,1.02.42,1.09-.65,1.42-2.97.91-5.72,2.3-8.38,3.86-2.34,1.04-4.73,1.88-7.32,2.01-2.31.12-4.57-.2-6.6-1.36-2.22-1.26-3.61-3.22-4.42-5.62-.17-.51.09-.66.49-.83,3.98-1.74,6.72-4.66,8.13-8.77,1.05-3.05,1.05-6.13.02-9.19-.17-.5-.12-.73.4-.96,3.73-1.61,8.05-.77,10.99,2.16.96.95,1.78,2.02,2.52,3.14Z"/>
            <path class="cls-12" d="M439.94,31.51c-1.04-1.36-2.48-2.43-4.09-3.02-.24-.09-.97-.44-1.17-.22-.03.03-.03.07-.03.11.14,1.63.39,3.24.63,4.85.08.51.17,1.05.48,1.46.33.44.87.67,1.38.88,1.61.67,3.2,1.36,4.78,2.08.03-2.16-.63-4.33-1.92-6.06-.02-.03-.04-.06-.06-.08Z"/>
            <path class="cls-12" d="M427.06,33.03c-.74,1.55-1.04,3.31-.83,5.02.03.25.05,1.07.34,1.15.04.01.08,0,.11-.03,1.38-.87,2.71-1.82,4.03-2.77.42-.3.86-.63,1.08-1.09.24-.5.2-1.08.16-1.63-.14-1.73-.25-3.47-.33-5.2-1.94.95-3.57,2.53-4.52,4.47-.02.03-.03.06-.05.09Z"/>
            <path class="cls-12" d="M434.76,43.13c1.71-.16,3.38-.81,4.73-1.86.2-.16.89-.59.81-.88-.01-.04-.05-.07-.08-.08-1.45-.74-2.95-1.39-4.45-2.04-.48-.21-.98-.42-1.49-.37-.55.05-1.03.38-1.48.7-1.42,1.01-2.85,1.99-4.3,2.95,1.81,1.17,4,1.76,6.15,1.59.03,0,.07,0,.1,0Z"/>
          </g>
        </g>
        <g>
          <path class="cls-2" d="M181,61.17v139.82c-9.06-.68-18.18-1.58-27.34-2.64-2.69-.32-5.37-.62-8.07-.98l-4.03-.52-2.03-.26-2.21-.25-18.15-2.01c-.59-.05-1.19-.1-1.78-.15v-49.32l-39.81,48.06c-10.94.26-21.97,1.09-33.11,2.64-3.18.47-6.35.89-9.53,1.41l-9.58,1.9-2.39.47c-.8.18-1.61.4-2.4.6l-4.81,1.21c-1.6.43-3.2.8-4.81,1.26l-4.82,1.49-4.82,1.52-.11.04c.06-.19.11-.37.16-.54.9-2.84,2.95-6.18,6.13-10.04l20.77-24.8,82.65-98.7c2.26-2.7,4.41-4.81,6.46-6.31,1.05-.79,2.06-1.4,3.06-1.85,2.95-1.36,7.14-2.05,12.59-2.05h47.97Z"/>
          <path class="cls-2" d="M181,266.28v36.44h-63.62v-43.08l11.54,1.28c.66.08,1.23.13,1.98.22l2.17.28,4.34.56c2.89.38,5.81.72,8.71,1.06,11.51,1.33,23.13,2.45,34.87,3.24Z"/>
          <path class="cls-2" d="M363.26,78.31c-.27-3.95-.84-7.77-1.67-11.34-.43-1.75-.91-3.46-1.43-4.97-.11-.28-.2-.57-.29-.83h-126.82c-5.44,0-9.24,1.09-11.39,3.24-2.16,2.15-3.24,5.84-3.24,11.06v30.62c0,5.44,1.08,9.24,3.24,11.4,2.15,2.15,5.95,3.23,11.39,3.23h90.5l-32.64,69.98c3.61-1.39,7.1-2.92,10.46-4.59,3.94-1.9,7.61-4.13,11.2-6.42.88-.59,1.73-1.22,2.6-1.82.85-.63,1.76-1.18,2.57-1.86l2.47-1.97,1.24-.97,1.17-1.06c6.33-5.53,11.95-11.87,16.87-19.04.66-.85,1.2-1.82,1.79-2.74l1.77-2.77c1.18-1.98,2.38-4.14,3.58-6.19,1.09-2.1,2.25-4.19,3.29-6.29.98-2.12,2.09-4.22,2.97-6.35l1.4-3.18,1.26-3.2c.88-2.12,1.55-4.26,2.32-6.39,1.35-4.26,2.6-8.53,3.45-12.77,1.74-8.47,2.5-16.87,1.95-24.77Z"/>
          <path class="cls-2" d="M340.93,238.7l-24.18,51.44c-2.49,5.22-5.39,8.63-8.67,10.21-3.29,1.59-9.35,2.38-18.2,2.38h-51.41l17.68-37.51c12.04-1.39,24.23-3.49,36.46-6.72,12.73-3.37,25.5-7.97,37.86-14.12,3.55-1.73,7.03-3.64,10.47-5.68Z"/>
          <path class="cls-11" d="M117.38,65.06v79.8l-39.81,48.06c-10.94.26-21.97,1.09-33.11,2.64-3.18.47-6.35.89-9.53,1.41l-9.58,1.9-2.39.47c-.8.18-1.61.4-2.4.6l-4.81,1.21c-1.6.43-3.2.8-4.81,1.26l-4.82,1.49-4.82,1.52-.11.04c.06-.19.11-.37.16-.54.9-2.84,2.95-6.18,6.13-10.04l20.77-24.8,82.65-98.7c2.26-2.7,4.41-4.81,6.46-6.31Z"/>
          <g>
            <path class="cls-9" d="M372.74,85.6c-.06,1.93-.16,3.1-.16,3.1.06-1.05.1-2.1.12-3.14,0,0,.03.03.04.04Z"/>
            <path class="cls-8" d="M353.14,207.12l-1.75,1.55-1.83,1.46-3.66,2.91c-1.21.98-2.53,1.82-3.79,2.74-1.28.89-2.53,1.81-3.83,2.68-5.23,3.37-10.57,6.56-16.13,9.27-11.06,5.52-22.61,9.68-34.29,12.78-7.42,1.96-14.89,3.48-22.36,4.66l-4.71,10.09c9.79-1.32,19.64-3.16,29.45-5.76,12.2-3.24,24.37-7.62,36.08-13.45,5.87-2.87,11.55-6.25,17.11-9.84,1.38-.91,2.72-1.89,4.08-2.84.33-.24.65-.47.98-.71l9.3-19.75c-1.51,1.43-3.05,2.84-4.62,4.21Z"/>
            <path class="cls-7" d="M182.63,247.74c-11.51-.77-22.96-1.86-34.35-3.19-2.85-.33-5.7-.65-8.53-1.03l-4.26-.55c-1.42-.18-2.85-.37-4.18-.5l-16.23-1.79c-21.6-1.83-43.33-1.98-64.35.98-2.62.39-5.24.73-7.85,1.14l-7.74,1.54-1.93.38c-.64.15-1.27.32-1.9.48l-3.79.96c-1.26.33-2.54.62-3.78.98l-3.7,1.15-3.69,1.15-3.59,1.33c-1.18.46-2.42.85-3.57,1.36l-3.02,1.31c2.07.88,4.79,1.32,8.12,1.32h17.18l2-.51c.6-.15,1.19-.31,1.79-.45l1.84-.37,7.38-1.46c2.49-.4,5.02-.73,7.52-1.1,20.14-2.84,41.21-2.71,62.28-.93l15.83,1.75c.68.08,1.29.13,2.02.23l2.15.27,4.3.55c2.86.39,5.74.71,8.62,1.05,11.19,1.3,22.44,2.38,33.8,3.16l15.55.83,14.12.75s.54-7.85.54-9.72c-9.58-.08-19.11-.47-28.58-1.09Z"/>
            <path class="cls-5" d="M183.85,229.18c-11.16-.75-22.29-1.81-33.42-3.11-5.58-.61-11.1-1.41-16.72-2.05l-16.99-1.88c-22.71-1.92-45.71-2.11-68.49,1.08-2.84.43-5.69.8-8.53,1.26l-8.47,1.68-2.11.43c-.71.16-1.41.35-2.1.52l-4.2,1.07c-1.4.36-2.8.69-4.2,1.09l-4.14,1.29-4.15,1.3-4.09,1.51c-1.36.52-2.73.97-4.07,1.55l-2.17.94v4.63c0,2,.16,3.76.47,5.3.48-.22.97-.45,1.47-.65l3.73-1.61c1.25-.54,2.55-.96,3.83-1.45l3.83-1.42,7.85-2.44c1.31-.38,2.66-.69,3.98-1.04l3.99-1.01c.67-.17,1.33-.35,2-.5l2.03-.4,8.1-1.62c2.72-.43,5.47-.79,8.2-1.19,21.9-3.07,44.26-2.91,66.41-1.03l16.61,1.83c5.57.65,11.21,1.46,16.84,2.07,11.25,1.31,22.55,2.39,33.89,3.15,9.76.63,18.8,1.22,28.62,1.26l.48-9.69c-9.59-.04-18.91-.23-28.5-.86Z"/>
            <path class="cls-6" d="M212.21,211.62c-8.98-.05-18.04-.41-27.14-1.01-10.79-.72-21.62-1.75-32.49-3.02-2.72-.32-5.44-.62-8.16-.99l-4.08-.52-2.05-.26-2.18-.25-17.77-1.96c-6.78-.57-13.61-1.01-20.47-1.24h-24.47c-9.19.35-18.42,1.12-27.68,2.41-3.07.45-6.14.86-9.2,1.36l-9.21,1.82-2.31.47c-.77.17-1.53.38-2.3.57l-4.6,1.16c-1.53.41-3.07.77-4.6,1.2l-4.59,1.42-4.59,1.44L.02,215.8c0,.71-.02,1.44-.02,2.21v7.73c1-.38,2-.73,2.99-1.1l4.33-1.6,4.37-1.38,4.37-1.36c1.46-.42,2.94-.77,4.4-1.14l4.4-1.11c.74-.18,1.46-.39,2.2-.55l2.21-.44,8.84-1.75c2.96-.47,5.9-.87,8.86-1.31,23.66-3.31,47.31-3.09,70.56-1.12l17.38,1.92c1.48.16,2.84.33,4.22.51l4.12.52c2.75.37,5.51.69,8.26,1.01,10.99,1.28,21.98,2.33,32.96,3.06,9.41.61,18.82,1,28.18,1.04v-4.28c0-1.88-.15-3.56-.43-5.03Z"/>
          </g>
          <path class="cls-4" d="M354,61.17l-30.44,59.54h-105.13v-59.5h12.9c.55-.03,1.13-.04,1.73-.04h120.94Z"/>
          <path class="cls-3" d="M381.82,90.4c-.37,5.5-1.16,11.02-2.29,16.49-1.01,4.98-2.43,9.9-3.99,14.79-.87,2.44-1.64,4.88-2.64,7.29l-1.43,3.62-1.55,3.57c-1,2.41-2.22,4.74-3.33,7.1-1.15,2.35-2.43,4.64-3.64,6.97-1.32,2.28-2.6,4.61-3.95,6.84l-2.05,3.23c-.7,1.07-1.32,2.18-2.09,3.19-11.49,16.76-26.85,30.3-45.17,39.26-9.12,4.54-18.86,8.09-28.95,10.77-.18.05-.36.09-.54.13l5.21-11.18c7.02-2.21,13.76-4.88,20.13-8.05,17.02-8.33,30.96-20.67,41.64-36.19.72-.94,1.3-1.98,1.95-2.97l1.9-3c1.26-2.11,2.5-4.36,3.76-6.52,1.15-2.22,2.36-4.41,3.46-6.63,1.05-2.24,2.23-4.45,3.16-6.72l1.48-3.38,1.33-3.41c.95-2.25,1.67-4.55,2.48-6.84,1.45-4.57,2.79-9.17,3.73-13.78,1.11-5.45,1.88-10.9,2.16-16.29,0,0,.1-1.17.16-3.1.17-5.27.05-16.22-3.14-24.43h9.36s4.1,8.55,2.84,29.24Z"/>
          <line class="cls-1" x1="370.83" y1="70.13" x2="383.15" y2="79.69"/>
        </g>
        <g>
          <path class="cls-12" d="M427.66,108.74h-3.45l1.25-2.79h10.06l-1.25,2.79h-3.43l-4.31,9.64h-3.18l4.31-9.64Z"/>
          <path class="cls-12" d="M447.38,105.96l-5.55,12.42h-3.18l2.16-4.85h-4.33l-2.16,4.85h-3.18l5.55-12.42h3.18l-2.09,4.67h4.33l2.09-4.67h3.18Z"/>
        </g>
      </g>
      <text class="cls-10" transform="translate(465.14 121.16)"><tspan x="0" y="0">MEETING OF THE ASEAN COMMITTEE</tspan><tspan x="0" y="73.56">ON DISASTER MANAGEMENT</tspan><tspan x="0" y="147.12">AND RELATED MEETINGS</tspan></text>
    </g>
  </g>
</svg>